<svg xmlns="http://www.w3.org/2000/svg" id="_031-checklist" width="40.56" height="57" viewBox="0 0 40.56 57">
    <defs>
        <style>
            .cls-2{fill:#2f3a5a}.cls-6{fill:#9297ab}.cls-8{fill:#81dafc}
        </style>
    </defs>
    <path id="Trazado_4375" fill="#b4835c" d="M19.46 13.371h39.669v50.6H19.46z" transform="translate(-19.015 -7.417)"/>
    <path id="Trazado_4376" d="M58.574 63.862H18.905a.445.445 0 0 1-.445-.445v-50.6a.445.445 0 0 1 .445-.445h39.669a.445.445 0 0 1 .445.445v50.6a.445.445 0 0 1-.445.445zm-39.224-.891h38.779V13.262H19.351z" class="cls-2" transform="translate(-18.46 -6.862)"/>
    <path id="Trazado_4377" fill="#e1b378" d="M19.46 13.371h39.669v50.6H19.46z" transform="translate(-19.015 -7.417)"/>
    <path id="Trazado_4378" fill="#bd8d5a" d="M59.128 13.377v50.6H19.459v-2.07h37.929v-48.53z" transform="translate(-19.014 -7.42)"/>
    <path id="Trazado_4379" d="M58.574 63.862H18.905a.445.445 0 0 1-.445-.445v-50.6a.445.445 0 0 1 .445-.445h39.669a.445.445 0 0 1 .445.445v50.6a.445.445 0 0 1-.445.445zm-39.224-.891h38.779V13.262H19.351z" class="cls-2" transform="translate(-18.46 -6.862)"/>
    <path id="Trazado_4380" fill="#f0f5f9" d="M27.441 20.588H60V64.2H27.441z" transform="translate(-23.442 -11.42)"/>
    <path id="Trazado_4381" d="M59.448 64.09H26.886a.445.445 0 0 1-.445-.445V20.033a.445.445 0 0 1 .445-.445h32.562a.445.445 0 0 1 .445.445v43.612a.445.445 0 0 1-.445.445zm-32.116-.89H59V20.479H27.332z" class="cls-2" transform="translate(-22.887 -10.865)"/>
    <path id="Trazado_4382" d="M57.214 5.135a.9.9 0 0 1-.9-.855v-.089a3.187 3.187 0 0 0-6.375 0 .9.9 0 0 1-.9.946h-4.647v7.585h17.463V5.135z" class="cls-6" transform="translate(-32.844 -.557)"/>
    <path id="Trazado_4383" fill="#707583" d="M61.855 10.28v7.588H44.39v-1.456h16.08V10.28z" transform="translate(-32.843 -5.702)"/>
    <path id="Trazado_4384" d="M61.3 12.61H43.837a.445.445 0 0 1-.445-.445V4.578a.445.445 0 0 1 .445-.445h5.1v-.5a3.632 3.632 0 1 1 7.265 0v.5h5.1a.445.445 0 0 1 .445.445v7.587a.445.445 0 0 1-.447.445zm-17.017-.89h16.572v-6.7h-5.1a.445.445 0 0 1-.445-.445v-.943a2.742 2.742 0 1 0-5.484 0v.946a.445.445 0 0 1-.445.445h-5.1z" class="cls-2" transform="translate(-32.289)"/>
    <g id="Grupo_4382" transform="translate(17.834 20.128)">
        <path id="Trazado_4385" d="M71.552 46.091h-12.6a.445.445 0 0 1 0-.891h12.6a.445.445 0 1 1 0 .891z" class="cls-6" transform="translate(-58.508 -45.2)"/>
        <path id="Trazado_4386" d="M71.552 52.274h-12.6a.445.445 0 0 1 0-.891h12.6a.445.445 0 1 1 0 .891z" class="cls-6" transform="translate(-58.508 -48.63)"/>
        <path id="Trazado_4387" d="M71.552 70.015h-12.6a.445.445 0 0 1 0-.891h12.6a.445.445 0 1 1 0 .891z" class="cls-6" transform="translate(-58.508 -58.47)"/>
        <path id="Trazado_4388" d="M71.552 76.2h-12.6a.445.445 0 0 1 0-.891h12.6a.445.445 0 1 1 0 .891z" class="cls-6" transform="translate(-58.508 -61.901)"/>
        <path id="Trazado_4389" d="M71.552 93.94h-12.6a.445.445 0 0 1 0-.891h12.6a.445.445 0 1 1 0 .891z" class="cls-6" transform="translate(-58.508 -71.741)"/>
        <path id="Trazado_4390" d="M71.552 100.125h-12.6a.445.445 0 1 1 0-.891h12.6a.445.445 0 1 1 0 .891z" class="cls-6" transform="translate(-58.508 -75.172)"/>
    </g>
    <path id="Trazado_4391" d="M39.167 42.709h5.861v5.861h-5.861z" class="cls-8" transform="translate(-29.946 -23.69)"/>
    <path id="Trazado_4392" d="M44.474 48.461h-5.862a.445.445 0 0 1-.445-.445v-5.862a.445.445 0 0 1 .445-.445h5.862a.445.445 0 0 1 .445.445v5.862a.445.445 0 0 1-.445.445zm-5.416-.891h4.971V42.6h-4.971z" class="cls-2" transform="translate(-29.391 -23.135)"/>
    <path id="Trazado_4393" d="M39.167 66.635h5.861V72.5h-5.861z" class="cls-8" transform="translate(-29.946 -36.962)"/>
    <path id="Trazado_4394" d="M44.474 72.388h-5.862a.445.445 0 0 1-.445-.445V66.08a.445.445 0 0 1 .445-.445h5.862a.445.445 0 0 1 .445.445v5.863a.445.445 0 0 1-.445.445zm-5.416-.888h4.971v-4.974h-4.971z" class="cls-2" transform="translate(-29.391 -36.407)"/>
    <path id="Trazado_4395" d="M39.167 90.56h5.861v5.861h-5.861z" class="cls-8" transform="translate(-29.946 -50.233)"/>
    <g id="Grupo_4383" transform="translate(8.776 20.832)">
        <path id="Trazado_4396" d="M44.474 96.312h-5.862a.445.445 0 0 1-.445-.445v-5.862a.445.445 0 0 1 .445-.445h5.862a.445.445 0 0 1 .445.445v5.862a.445.445 0 0 1-.445.445zm-5.416-.891h4.971v-4.97h-4.971z" class="cls-2" transform="translate(-38.167 -70.51)"/>
        <path id="Trazado_4397" d="M43.6 49.015a.445.445 0 0 1-.315-.13l-.644-.644a.445.445 0 1 1 .63-.63l.329.33 1.03-1.03a.445.445 0 1 1 .63.63l-1.345 1.345a.445.445 0 0 1-.315.129z" class="cls-2" transform="translate(-40.578 -46.78)"/>
        <path id="Trazado_4398" d="M43.6 72.942a.445.445 0 0 1-.315-.13l-.644-.644a.445.445 0 1 1 .63-.63l.329.33 1.03-1.03a.445.445 0 1 1 .63.63l-1.345 1.345a.445.445 0 0 1-.315.129z" class="cls-2" transform="translate(-40.578 -60.052)"/>
        <path id="Trazado_4399" d="M43.616 96.869a.445.445 0 0 1-.315-.13l-.644-.644a.445.445 0 0 1 .63-.629l.33.33 1.03-1.03a.445.445 0 1 1 .63.63l-1.345 1.345a.445.445 0 0 1-.316.128z" class="cls-2" transform="translate(-40.591 -73.324)"/>
    </g>
</svg>
